<svg width="39" height="37" viewBox="0 0 39 37" fill="none" xmlns="http://www.w3.org/2000/svg">
<path fill-rule="evenodd" clip-rule="evenodd" d="M29.3705 27.7013C31.9469 27.2937 33.9166 25.0629 33.9166 22.372C33.9166 19.6117 31.844 17.3355 29.1702 17.0148C28.4522 12.621 24.6385 9.26781 20.0416 9.26781C16.514 9.26781 13.4476 11.2425 11.8875 14.1468C11.2936 13.9813 10.6675 13.8928 10.0208 13.8928C6.18934 13.8928 3.08331 16.9988 3.08331 20.8303C3.08331 24.3936 5.76978 27.3295 9.22782 27.723C9.48805 27.7526 29.3705 27.7013 29.3705 27.7013Z" fill="#4B88FF" fill-opacity="0.89"/>
<path d="M16.1606 5.01523C16.1464 5.02953 16.1359 6.97763 16.1359 9.34395C16.1359 11.7567 16.1217 13.6405 16.1041 13.6298C16.0899 13.6191 16.0652 13.5583 16.0546 13.4939C16.0405 13.4296 15.9911 13.2294 15.9452 13.0543C15.6062 11.7889 15.4932 11.3635 15.4791 11.2849C15.4685 11.2349 15.4402 11.1241 15.412 11.0347C15.3413 10.7988 15.193 10.2483 15.1648 10.1125C15.1507 10.0481 15.1189 9.98378 15.0942 9.97306C15.0659 9.96591 14.8576 10.0088 14.6281 10.0696C13.8653 10.2769 13.8406 10.2876 13.8406 10.3663C13.8406 10.4342 13.89 10.6272 14.0878 11.3564C14.1231 11.4851 14.1867 11.7246 14.229 11.8926C14.3915 12.511 14.4515 12.7397 14.5115 12.9649C14.5468 13.0936 14.6175 13.3581 14.6704 13.5547C14.8223 14.1409 14.8329 14.1838 14.854 14.2374C14.8646 14.266 14.8576 14.2875 14.8435 14.2875C14.8117 14.2875 14.7728 14.2267 14.5751 13.8585C14.5151 13.7513 14.3915 13.5333 14.2997 13.376C14.1408 13.1079 13.2156 11.4815 12.9225 10.9632C12.8519 10.8345 12.5906 10.377 12.3399 9.94447C12.0927 9.51195 11.8173 9.02939 11.729 8.87211C11.6442 8.71484 11.4959 8.45747 11.4041 8.30019C11.1287 7.82836 10.6485 6.98835 10.5708 6.83465C10.4507 6.60946 10.4225 6.60588 10.1294 6.78103C9.9846 6.86682 9.75861 6.99908 9.62089 7.07414C9.48671 7.14921 9.35606 7.23142 9.33134 7.25644C9.28543 7.30291 9.34546 7.41729 10.2212 8.94361C10.4119 9.27603 10.6273 9.65493 10.6979 9.78361C10.772 9.9123 11.0016 10.3126 11.2099 10.6772C11.4182 11.0418 11.6442 11.435 11.7113 11.553C11.7749 11.671 11.8455 11.7925 11.8632 11.8211C11.9197 11.9176 12.3611 12.6933 12.3999 12.7683C12.4211 12.8076 12.5447 13.015 12.6683 13.233C12.7954 13.4475 12.9402 13.7084 12.9967 13.8121C13.0532 13.9157 13.1697 14.1195 13.258 14.266C13.3462 14.4126 13.4169 14.5448 13.4169 14.5627C13.4169 14.577 12.8448 14.0122 12.1457 13.3045L10.8744 12.0177L10.3977 12.5002C10.1364 12.7647 9.92104 12.9899 9.92104 13.0007C9.92104 13.0078 10.5284 13.6334 11.2699 14.384C12.015 15.1382 12.6082 15.753 12.5906 15.753C12.5588 15.753 12.3046 15.6101 11.9161 15.3777C11.782 15.2955 11.5983 15.1883 11.5101 15.1382C11.4218 15.0882 11.1923 14.9559 10.998 14.8415C10.8038 14.7271 10.5037 14.5484 10.3271 14.4483C10.1541 14.3447 9.65973 14.0587 9.23247 13.8049C8.8052 13.5547 8.37793 13.3045 8.27906 13.2509C8.18372 13.1973 8.0001 13.09 7.87298 13.0114C7.74586 12.9327 7.34331 12.6968 6.97254 12.4824C6.6053 12.2715 6.08975 11.9676 5.82845 11.8139C5.1999 11.435 5.2105 11.4386 5.10456 11.5816C5.03394 11.6781 4.67023 12.3144 4.52192 12.5967C4.47955 12.6825 4.47602 12.679 5.79666 13.4511C6.03678 13.5905 6.50289 13.8621 6.83129 14.0551C7.16322 14.2482 7.6258 14.5198 7.86591 14.6592C8.10603 14.7986 8.5333 15.0524 8.81932 15.2204C9.10535 15.3884 9.5538 15.6494 9.81511 15.8066C10.0764 15.9604 10.3554 16.1212 10.4331 16.1641C10.8815 16.4143 11.6336 16.8683 11.6442 16.8933C11.6513 16.9112 11.5312 16.8897 11.3794 16.8433C11.2276 16.7968 10.9698 16.7253 10.8038 16.6824C10.6379 16.6395 10.4013 16.5752 10.2742 16.5394C10.147 16.5037 9.91045 16.4393 9.74448 16.3964C9.27131 16.2713 8.97469 16.1891 8.6357 16.0926C8.26493 15.9854 8.20137 15.9818 8.17666 16.064C8.14488 16.1712 8.01069 16.686 7.94007 16.9827C7.89416 17.1542 7.88004 17.2758 7.90123 17.2972C7.91888 17.3151 8.10603 17.3759 8.3179 17.433C8.52977 17.4867 9.03825 17.6261 9.44434 17.7369C9.85395 17.8477 10.2671 17.9621 10.3624 17.9871C10.4613 18.0157 10.6979 18.08 10.8921 18.1336C11.0863 18.1873 11.2876 18.2373 11.3441 18.248C11.7325 18.3124 11.051 18.3267 7.40333 18.3267C5.16106 18.3267 3.25424 18.3374 3.16243 18.3481L3 18.3731V19.0023C3 19.4455 3.01412 19.6492 3.04237 19.6778C3.07415 19.71 4.07347 19.7207 7.30446 19.7243L11.5277 19.7279L11.2629 19.8101C11.1181 19.853 10.8639 19.928 10.6979 19.9709C10.5319 20.0138 10.2953 20.0782 10.1682 20.1139C9.68092 20.2533 8.83698 20.4821 8.72045 20.5107C8.44855 20.5715 7.95066 20.7144 7.90829 20.7395C7.85885 20.7716 7.86945 20.8431 7.99657 21.3293C8.159 21.9405 8.19431 22.0442 8.23668 22.0442C8.28259 22.0442 8.6357 21.9548 9.09122 21.8297C9.24659 21.7868 9.48671 21.7224 9.62089 21.6867C9.91398 21.6081 10.2742 21.508 10.7332 21.3829C10.9168 21.3328 11.1358 21.2756 11.217 21.2578C11.2982 21.2399 11.4641 21.1934 11.5842 21.1505C11.9373 21.0361 11.955 21.0612 11.6336 21.2399C11.5383 21.2935 11.2523 21.4579 10.998 21.6081C10.3836 21.9691 9.53261 22.4659 9.44434 22.516C9.31015 22.5911 8.0566 23.3274 7.20206 23.8314C6.9796 23.9637 6.71829 24.1174 6.61942 24.171C6.52408 24.2282 6.231 24.3997 5.97675 24.5535C5.71898 24.7072 5.50005 24.8323 5.49299 24.8323C5.48592 24.8323 5.29171 24.9431 5.06219 25.0825C4.83266 25.2183 4.63492 25.3327 4.62079 25.3327C4.6102 25.3327 4.58901 25.3756 4.57842 25.4292C4.5643 25.515 4.62786 25.6615 4.83619 26.0118C4.85385 26.0404 4.93507 26.187 5.01981 26.3336C5.10103 26.4801 5.18225 26.6124 5.20343 26.6231C5.22109 26.6374 5.30937 26.6016 5.39765 26.548C5.48946 26.4944 5.63776 26.4086 5.72604 26.3586C5.81432 26.3085 6.19215 26.0869 6.56999 25.8653C6.94782 25.6437 7.41393 25.372 7.60814 25.2612C7.80235 25.1504 8.159 24.9395 8.40265 24.7965C8.6463 24.6535 9.01 24.4391 9.21481 24.3211C9.41962 24.2032 9.62442 24.0816 9.67386 24.0494C9.7233 24.0209 9.81157 23.9672 9.86807 23.9351C10.0058 23.86 11.3123 23.0915 11.4747 22.995C11.5418 22.9521 11.6372 22.8985 11.6866 22.8734C11.736 22.852 11.7996 22.8162 11.8279 22.7948C11.9974 22.684 12.4246 22.4373 12.4493 22.4373C12.467 22.4373 11.902 23.0236 11.1958 23.7385C10.0799 24.868 9.91751 25.0467 9.94929 25.1039C9.97048 25.1432 10.1788 25.3649 10.4154 25.5972L10.8427 26.0261L12.1916 24.6607C12.9331 23.91 13.5546 23.2952 13.5687 23.2952C13.6005 23.2952 13.491 23.5025 13.2227 23.9565C13.1414 24.0923 13.0355 24.2782 12.9861 24.3676C12.8272 24.6607 12.068 25.994 12.0397 26.0297C12.0256 26.0476 11.9726 26.137 11.9267 26.2263C11.7255 26.5873 11.0333 27.7991 10.8709 28.0708C10.7756 28.2316 10.6979 28.371 10.6979 28.3817C10.6979 28.3925 10.5814 28.5998 10.4401 28.8429C10.2953 29.0859 10.0482 29.5149 9.88573 29.8008C9.72683 30.0868 9.53968 30.4121 9.47612 30.5264C9.40902 30.6408 9.35606 30.7588 9.35606 30.7874C9.35606 30.8374 9.51849 30.9554 9.78686 31.0948C9.86454 31.1377 10.0588 31.2485 10.2141 31.3414C10.366 31.4344 10.5143 31.5023 10.5355 31.4951C10.5566 31.488 10.6131 31.4022 10.6626 31.3093C10.712 31.2163 10.8462 30.9733 10.9663 30.7659C11.224 30.3191 11.7113 29.4684 12.0927 28.8C12.4387 28.1887 12.8413 27.4845 13.0885 27.0592C13.3816 26.5516 13.9077 25.6222 14.0172 25.4221C14.0701 25.322 14.2114 25.0789 14.3279 24.8787C14.4444 24.6786 14.5751 24.4498 14.6175 24.3712C14.6951 24.2139 14.7799 24.1674 14.7269 24.3032C14.7093 24.3497 14.6386 24.6106 14.568 24.8859C14.4939 25.1611 14.4056 25.49 14.3703 25.6187C14.3067 25.851 14.2396 26.1084 14.0878 26.691C14.0454 26.859 13.9783 27.0985 13.943 27.2272C13.9042 27.3559 13.8653 27.5274 13.8512 27.6061C13.8371 27.7312 13.8441 27.7598 13.8971 27.7777C14.003 27.8098 14.508 27.9421 14.8081 28.0171C14.96 28.0565 15.0977 28.0779 15.1154 28.06C15.1295 28.0457 15.1754 27.9028 15.2178 27.7455C15.3767 27.1235 15.5497 26.4801 15.6309 26.1727C15.6768 25.994 15.7474 25.7366 15.7827 25.6008C15.818 25.4614 15.8922 25.1897 15.9416 24.9931C15.9946 24.7965 16.0476 24.6035 16.0546 24.5642C16.0652 24.5249 16.0829 24.4677 16.0935 24.4391C16.1076 24.4105 16.1253 26.3228 16.1359 28.6927L16.1535 33H16.8068H17.46L17.4777 28.6391C17.4883 26.1906 17.5095 24.3247 17.5236 24.3855C17.5412 24.4426 17.5695 24.5463 17.5907 24.6106C17.6331 24.7536 17.7884 25.3363 17.8273 25.5114C17.8449 25.5793 17.9014 25.7974 17.9544 25.994C18.0074 26.1906 18.1027 26.5516 18.1663 26.7982C18.2898 27.2665 18.4487 27.867 18.4876 28.0028C18.5158 28.1029 18.53 28.1029 18.8584 28.0171C19.0031 27.9778 19.2538 27.9099 19.4198 27.867C19.5858 27.8241 19.7376 27.7705 19.7623 27.7491C19.8082 27.7062 19.8012 27.6633 19.5257 26.6195C19.4445 26.3157 19.3492 25.9511 19.3139 25.8153C19.2786 25.6758 19.1974 25.3792 19.1373 25.154C19.0773 24.9288 19.0173 24.7036 19.0067 24.6535C18.9996 24.6035 18.9643 24.4855 18.936 24.3926C18.9078 24.2961 18.8901 24.2139 18.8972 24.2032C18.9078 24.196 19.0208 24.3783 19.1514 24.6106C19.4269 25.0932 19.4022 25.0539 19.614 25.4149C19.7023 25.5686 19.8188 25.7759 19.8753 25.8796C19.9318 25.9833 20.0837 26.2513 20.2143 26.4765C20.345 26.7017 20.4968 26.9734 20.5533 27.0771C20.6098 27.1771 20.6946 27.3237 20.7405 27.4023C20.7899 27.4774 21.0759 27.9814 21.3796 28.5176C21.6833 29.0573 21.9799 29.5685 22.0329 29.6578C22.0858 29.7472 22.1741 29.8973 22.2271 29.9974C22.28 30.0939 22.4072 30.3191 22.5096 30.4978C22.612 30.673 22.785 30.9768 22.8945 31.1663C23.0039 31.3593 23.1099 31.5166 23.124 31.5166C23.1416 31.5166 23.3818 31.3808 23.6607 31.2127C23.9397 31.0447 24.1798 30.9089 24.1939 30.9089C24.2681 30.9089 24.201 30.7409 23.9891 30.3692C23.8585 30.144 23.636 29.7579 23.4948 29.5041C23.35 29.2539 23.1169 28.8464 22.9721 28.5926C22.5166 27.7955 22.2235 27.2844 22.1812 27.2093C22.16 27.17 22.0081 26.9055 21.8457 26.6195C21.6833 26.3336 21.4502 25.9225 21.3266 25.708C21.203 25.49 21.0653 25.2541 21.023 25.1826C20.977 25.1075 20.9382 25.0396 20.9382 25.0324C20.9382 25.0217 20.8464 24.8573 20.7334 24.6643C20.6204 24.4712 20.4721 24.2174 20.4085 24.0995C20.345 23.9815 20.1967 23.7277 20.0837 23.5311C19.9671 23.3381 19.8859 23.1701 19.8965 23.1594C19.9071 23.1487 20.5604 23.7885 21.3443 24.582L22.7744 26.0297L23.2334 25.565C23.4842 25.3112 23.6925 25.0861 23.6925 25.0646C23.6925 25.0432 23.1522 24.482 22.4884 23.8135C21.4538 22.7662 21.1148 22.4052 21.2454 22.4838C21.2595 22.491 21.5456 22.659 21.874 22.8484C22.2059 23.0414 22.4919 23.2094 22.5096 23.2237C22.5308 23.238 22.6155 23.2917 22.7038 23.3381C22.9121 23.4597 24.1445 24.1746 24.5541 24.4176C24.7307 24.5213 25.0838 24.7286 25.3345 24.8752C25.5887 25.0253 26.0266 25.2827 26.3126 25.4542C26.5986 25.6222 26.8387 25.7616 26.8493 25.7616C26.8599 25.7616 26.9694 25.8224 27.0895 25.8975C27.213 25.9725 27.5556 26.1763 27.8486 26.3479C28.2936 26.6016 28.3995 26.6517 28.456 26.6231C28.5125 26.5909 28.6926 26.305 28.9221 25.8832C28.9574 25.8224 29.0175 25.7187 29.0563 25.6508C29.0987 25.5829 29.1305 25.5114 29.1305 25.4864C29.1305 25.4614 29.0563 25.4006 28.9645 25.347C28.8692 25.2934 28.5831 25.1218 28.3254 24.9681C28.0676 24.8144 27.8451 24.6893 27.8381 24.6893C27.8275 24.6893 27.6121 24.5642 27.3543 24.4105C27.0965 24.2568 26.6587 23.9958 26.3762 23.8314C26.0937 23.6706 25.6805 23.4275 25.4581 23.2952C25.2356 23.163 24.9178 22.9771 24.7554 22.8842C24.5894 22.7912 24.3564 22.6518 24.2328 22.5768C24.1092 22.4981 23.9256 22.3909 23.8231 22.3337C23.7243 22.2801 23.2899 22.0263 22.8627 21.7761C22.4354 21.5223 22.0399 21.2935 21.9799 21.2613C21.6409 21.0755 21.6621 21.0326 22.0364 21.147C22.3401 21.2399 22.7991 21.3686 22.951 21.4007C23.018 21.415 23.1946 21.4615 23.3394 21.5008C24.2681 21.7582 25.0626 21.9727 25.1403 21.9905C25.4545 22.0656 25.4545 22.0656 25.5252 21.7403C25.5463 21.6402 25.6099 21.3864 25.6664 21.1684C25.7264 20.9539 25.7617 20.7645 25.7476 20.7502C25.7264 20.7287 25.1014 20.5536 24.3104 20.3463C24.2151 20.3212 23.9503 20.2498 23.7278 20.1854C23.5053 20.1211 23.2652 20.0567 23.1981 20.0424C23.0534 20.0103 22.2942 19.7994 22.1918 19.7636C22.1529 19.7493 25.9206 19.7315 30.5606 19.7207L39 19.7029V19.0237V18.3445L30.5782 18.3267C25.9454 18.3159 22.1812 18.2981 22.2094 18.2838C22.2377 18.2731 22.3895 18.2266 22.5449 18.1837C22.7002 18.1408 22.8768 18.0943 22.9333 18.0765C22.9933 18.0586 23.2935 17.9764 23.6042 17.8942C23.915 17.8119 24.2398 17.7226 24.3281 17.6976C24.4764 17.6582 25.0696 17.4974 25.5252 17.3759C25.6311 17.3473 25.7335 17.3115 25.7512 17.2936C25.7688 17.2758 25.7653 17.2043 25.7406 17.1256C25.7194 17.047 25.6841 16.929 25.6699 16.8611C25.5711 16.4501 25.4581 16.0604 25.4263 16.0283C25.391 15.9925 25.172 16.0426 23.8867 16.3964C23.5195 16.5001 23.1593 16.5966 23.0922 16.6109C23.0251 16.6288 22.7532 16.7003 22.4919 16.7718C22.2306 16.8468 21.9834 16.9147 21.9446 16.9219C21.8386 16.9505 21.9163 16.8861 22.1211 16.7718C22.3083 16.6681 22.9368 16.2999 23.6395 15.8817C23.8726 15.7459 24.1268 15.5958 24.2045 15.5529C24.4411 15.4206 25.6841 14.6914 25.9312 14.5377C26.0619 14.4591 26.1749 14.3947 26.1855 14.3947C26.1961 14.3947 26.4362 14.2553 26.7222 14.0873C27.8381 13.4225 28.0605 13.2938 28.2194 13.2044C28.3112 13.1544 28.5513 13.0114 28.7562 12.8899C29.2435 12.6003 29.2435 12.6039 28.9115 12.0463C28.7738 11.8139 28.6361 11.5709 28.6078 11.5065C28.5761 11.4458 28.5372 11.3921 28.5196 11.3921C28.4772 11.3921 28.0711 11.6173 27.5768 11.9104C27.3719 12.032 26.9376 12.2893 26.6057 12.4824C26.2773 12.6754 25.8218 12.9399 25.5993 13.0722C25.3768 13.2008 24.9072 13.4761 24.5576 13.6798C24.0421 13.9801 23.4418 14.3304 23.0922 14.5377C23.064 14.5556 22.8662 14.67 22.6543 14.7951C22.4425 14.9202 22.1953 15.0632 22.107 15.1168C22.0187 15.1704 21.9199 15.2276 21.8916 15.2419C21.8634 15.2562 21.6727 15.367 21.4679 15.4921C21.2666 15.6136 21.0936 15.7066 21.083 15.6958C21.0724 15.6851 21.655 15.081 22.3789 14.3483C23.1028 13.6155 23.6925 13.0007 23.6925 12.9828C23.6925 12.9613 23.4842 12.7362 23.2334 12.4824L22.7744 12.0177L21.4855 13.3224C20.7758 14.0408 20.1967 14.6163 20.1967 14.602C20.1967 14.5877 20.2461 14.4912 20.3061 14.3876C20.3697 14.2839 20.4544 14.1338 20.4968 14.0551C20.5392 13.9765 20.7793 13.5583 21.0265 13.1258C21.2737 12.6933 21.5208 12.2536 21.5773 12.1499C21.6338 12.0498 21.7151 11.9033 21.761 11.8282C21.8386 11.7103 22.5731 10.4234 22.7497 10.1053C22.785 10.0374 22.9015 9.83366 23.0039 9.6585C23.1063 9.47978 23.3429 9.06156 23.5336 8.72914C23.7243 8.39313 23.9785 7.94989 24.1021 7.739C24.2257 7.5281 24.3281 7.32436 24.3281 7.28504C24.3281 7.24572 24.2928 7.18853 24.2504 7.15635C24.0385 7.00623 23.1981 6.52724 23.1699 6.54511C23.1416 6.56299 22.9404 6.90256 22.4601 7.7533C22.3507 7.94632 22.1247 8.33951 21.9587 8.62905C21.7927 8.92216 21.5244 9.39042 21.3619 9.67638C21.1995 9.96234 20.9629 10.3806 20.8287 10.6057C20.6981 10.8309 20.5604 11.074 20.5251 11.1419C20.3697 11.4207 19.6211 12.7362 19.5964 12.7683C19.5822 12.7862 19.5293 12.8791 19.4763 12.9721C19.275 13.3402 19.2044 13.4689 19.0279 13.7585C18.816 14.1088 18.816 14.0909 19.042 13.2509C19.2185 12.5932 19.4163 11.8425 19.5328 11.41C19.5717 11.2527 19.6423 10.9918 19.6882 10.8345C19.8224 10.3412 19.8259 10.2983 19.7306 10.2733C19.6882 10.2626 19.4657 10.2018 19.2433 10.1411C18.5935 9.95876 18.5653 9.95161 18.5194 10.0052C18.4947 10.0303 18.4417 10.1875 18.3993 10.3555C18.3569 10.5235 18.2828 10.8131 18.2333 10.9989C18.1839 11.1848 18.1274 11.3957 18.1133 11.4636C18.0956 11.5315 18.0356 11.7746 17.972 11.9998C17.7743 12.729 17.7178 12.9435 17.6896 13.0722C17.6507 13.2473 17.5448 13.6155 17.5165 13.6798C17.5059 13.7084 17.4883 11.771 17.4777 9.37255L17.46 5.01165L16.8209 5.00093C16.4713 4.99735 16.1747 5.0045 16.1606 5.01523Z" fill="#E72F2F"/>
</svg>
