<svg width="33" height="33" viewBox="0 0 33 33" fill="none" xmlns="http://www.w3.org/2000/svg">
<path d="M16.5 30.25C12.8523 30.2533 9.353 28.8057 6.77366 26.2263C4.19432 23.647 2.74672 20.1477 2.75001 16.5V16.225C2.86246 10.7143 6.25323 5.80271 11.3663 3.7442C16.4793 1.6857 22.3274 2.87772 26.2268 6.77325C30.1626 10.7059 31.3406 16.6228 29.211 21.763C27.0813 26.9031 22.0639 30.2533 16.5 30.25ZM16.5 18.4387L20.0613 22L22 20.0612L18.4388 16.5L22 12.9387L20.0613 11L16.5 14.5612L12.9388 11L11 12.9387L14.5613 16.5L11 20.0612L12.9388 22L16.5 18.4401V18.4387Z" fill="#E72F2F"/>
</svg>
