<svg width="36" height="28" viewBox="0 0 36 28" fill="none" xmlns="http://www.w3.org/2000/svg">
<path d="M13.1606 0.0152283C13.1464 0.0295258 13.1359 1.97763 13.1359 4.34395C13.1359 6.75674 13.1217 8.6405 13.1041 8.62978C13.0899 8.61905 13.0652 8.55829 13.0546 8.49395C13.0405 8.4296 12.9911 8.22943 12.9452 8.05428C12.6062 6.78891 12.4932 6.36354 12.4791 6.2849C12.4685 6.23486 12.4402 6.12405 12.412 6.03469C12.3413 5.79877 12.193 5.2483 12.1648 5.11247C12.1507 5.04813 12.1189 4.98379 12.0942 4.97306C12.0659 4.96591 11.8576 5.00881 11.6281 5.06957C10.8653 5.27689 10.8406 5.28762 10.8406 5.36626C10.8406 5.43417 10.89 5.6272 11.0878 6.35639C11.1231 6.48507 11.1867 6.72457 11.229 6.89257C11.3915 7.51096 11.4515 7.73973 11.5115 7.96492C11.5468 8.0936 11.6175 8.35811 11.6704 8.55471C11.8223 9.14093 11.8329 9.18382 11.854 9.23744C11.8646 9.26604 11.8576 9.28749 11.8435 9.28749C11.8117 9.28749 11.7728 9.22672 11.5751 8.85855C11.5151 8.75131 11.3915 8.53326 11.2997 8.37599C11.1408 8.1079 10.2156 6.4815 9.92251 5.9632C9.85189 5.83452 9.59058 5.37698 9.33987 4.94447C9.09269 4.51195 8.81726 4.02939 8.72898 3.87211C8.64424 3.71484 8.49593 3.45747 8.40412 3.30019C8.12869 2.82836 7.64845 1.98835 7.57077 1.83465C7.45071 1.60946 7.42246 1.60588 7.12938 1.78103C6.9846 1.86682 6.75861 1.99908 6.62089 2.07414C6.48671 2.14921 6.35606 2.23142 6.33134 2.25644C6.28543 2.30291 6.34546 2.41729 7.22119 3.94361C7.41187 4.27603 7.62727 4.65493 7.69789 4.78361C7.77204 4.91229 8.00157 5.31264 8.20991 5.67724C8.41824 6.04184 8.64424 6.43503 8.71133 6.55299C8.77489 6.67095 8.84551 6.79248 8.86317 6.82108C8.91967 6.91759 9.36106 7.69326 9.3999 7.76832C9.42109 7.80764 9.54468 8.01496 9.66827 8.23301C9.79539 8.44748 9.94017 8.70842 9.99667 8.81208C10.0532 8.91574 10.1697 9.11948 10.258 9.26604C10.3462 9.41259 10.4169 9.54485 10.4169 9.56272C10.4169 9.57702 9.84483 9.01225 9.14566 8.3045L7.87445 7.01768L7.39774 7.50023C7.13644 7.76475 6.92104 7.98994 6.92104 8.00066C6.92104 8.00781 7.5284 8.63335 8.26994 9.384C9.01501 10.1382 9.60824 10.753 9.59058 10.753C9.5588 10.753 9.30456 10.6101 8.91613 10.3777C8.78195 10.2955 8.59833 10.1883 8.51005 10.1382C8.42177 10.0882 8.19225 9.95592 7.99804 9.84153C7.80383 9.72715 7.50368 9.54842 7.32712 9.44834C7.15409 9.34468 6.65973 9.05872 6.23247 8.80493C5.8052 8.55471 5.37793 8.3045 5.27906 8.25088C5.18372 8.19726 5.0001 8.09003 4.87298 8.01139C4.74586 7.93275 4.34331 7.69683 3.97254 7.48236C3.6053 7.27147 3.08975 6.96763 2.82845 6.81393C2.1999 6.43503 2.2105 6.43861 2.10456 6.58159C2.03394 6.6781 1.67023 7.31436 1.52192 7.59675C1.47955 7.68253 1.47602 7.67896 2.79666 8.45105C3.03678 8.59046 3.50289 8.86212 3.83129 9.05514C4.16322 9.24817 4.6258 9.51983 4.86591 9.65923C5.10603 9.79864 5.5333 10.0524 5.81932 10.2204C6.10535 10.3884 6.5538 10.6494 6.81511 10.8066C7.07641 10.9604 7.35537 11.1212 7.43306 11.1641C7.88151 11.4143 8.63364 11.8683 8.64424 11.8933C8.6513 11.9112 8.53124 11.8897 8.3794 11.8433C8.22756 11.7968 7.96979 11.7253 7.80383 11.6824C7.63786 11.6395 7.40127 11.5752 7.27415 11.5394C7.14703 11.5037 6.91045 11.4393 6.74448 11.3964C6.27131 11.2713 5.97469 11.1891 5.6357 11.0926C5.26493 10.9854 5.20137 10.9818 5.17666 11.064C5.14487 11.1712 5.01069 11.686 4.94007 11.9827C4.89416 12.1542 4.88004 12.2758 4.90123 12.2972C4.91888 12.3151 5.10603 12.3759 5.3179 12.433C5.52977 12.4867 6.03825 12.6261 6.44434 12.7369C6.85395 12.8477 7.26709 12.9621 7.36243 12.9871C7.4613 13.0157 7.69789 13.08 7.8921 13.1336C8.08632 13.1873 8.28759 13.2373 8.34409 13.248C8.73252 13.3124 8.05101 13.3267 4.40333 13.3267C2.16106 13.3267 0.254242 13.3374 0.162433 13.3481L0 13.3731V14.0023C0 14.4455 0.0141246 14.6492 0.0423737 14.6778C0.074154 14.71 1.07347 14.7207 4.30446 14.7243L8.52771 14.7279L8.26287 14.8101C8.1181 14.853 7.86385 14.928 7.69789 14.9709C7.53193 15.0138 7.29534 15.0782 7.16822 15.1139C6.68092 15.2533 5.83698 15.4821 5.72045 15.5107C5.44855 15.5715 4.95066 15.7144 4.90829 15.7395C4.85885 15.7716 4.86945 15.8431 4.99657 16.3293C5.159 16.9405 5.19431 17.0442 5.23668 17.0442C5.28259 17.0442 5.6357 16.9548 6.09122 16.8297C6.24659 16.7868 6.48671 16.7224 6.62089 16.6867C6.91398 16.6081 7.27415 16.508 7.7332 16.3829C7.91682 16.3328 8.13575 16.2756 8.21697 16.2578C8.29819 16.2399 8.46415 16.1934 8.58421 16.1505C8.93732 16.0361 8.95498 16.0612 8.63364 16.2399C8.5383 16.2935 8.25228 16.4579 7.99804 16.6081C7.38362 16.9691 6.53261 17.4659 6.44434 17.516C6.31015 17.5911 5.0566 18.3274 4.20206 18.8314C3.9796 18.9637 3.71829 19.1174 3.61942 19.171C3.52408 19.2282 3.231 19.3997 2.97675 19.5535C2.71898 19.7072 2.50005 19.8323 2.49299 19.8323C2.48592 19.8323 2.29171 19.9431 2.06219 20.0825C1.83266 20.2183 1.63492 20.3327 1.62079 20.3327C1.6102 20.3327 1.58901 20.3756 1.57842 20.4292C1.5643 20.515 1.62786 20.6615 1.83619 21.0118C1.85385 21.0404 1.93507 21.187 2.01981 21.3336C2.10103 21.4801 2.18225 21.6124 2.20343 21.6231C2.22109 21.6374 2.30937 21.6016 2.39765 21.548C2.48946 21.4944 2.63776 21.4086 2.72604 21.3586C2.81432 21.3085 3.19215 21.0869 3.56999 20.8653C3.94782 20.6437 4.41393 20.372 4.60814 20.2612C4.80235 20.1504 5.159 19.9395 5.40265 19.7965C5.6463 19.6535 6.01 19.4391 6.21481 19.3211C6.41962 19.2032 6.62442 19.0816 6.67386 19.0494C6.7233 19.0209 6.81157 18.9672 6.86807 18.9351C7.00579 18.86 8.31231 18.0915 8.47474 17.995C8.54183 17.9521 8.63717 17.8985 8.68661 17.8734C8.73605 17.852 8.79961 17.8162 8.82786 17.7948C8.99735 17.684 9.42462 17.4373 9.44934 17.4373C9.46699 17.4373 8.90201 18.0236 8.19578 18.7385C7.07994 19.868 6.91751 20.0467 6.94929 20.1039C6.97048 20.1432 7.17881 20.3649 7.4154 20.5972L7.84267 21.0261L9.19156 19.6607C9.9331 18.91 10.5546 18.2952 10.5687 18.2952C10.6005 18.2952 10.491 18.5025 10.2227 18.9565C10.1414 19.0923 10.0355 19.2782 9.98607 19.3676C9.82717 19.6607 9.06797 20.994 9.03973 21.0297C9.0256 21.0476 8.97263 21.137 8.92673 21.2263C8.72545 21.5873 8.03335 22.7991 7.87092 23.0708C7.77558 23.2316 7.69789 23.371 7.69789 23.3817C7.69789 23.3925 7.58136 23.5998 7.44012 23.8429C7.29534 24.0859 7.04816 24.5149 6.88573 24.8008C6.72683 25.0868 6.53968 25.4121 6.47612 25.5264C6.40902 25.6408 6.35606 25.7588 6.35606 25.7874C6.35606 25.8374 6.51849 25.9554 6.78686 26.0948C6.86454 26.1377 7.05875 26.2485 7.21412 26.3414C7.36596 26.4344 7.51427 26.5023 7.53546 26.4951C7.55665 26.488 7.61314 26.4022 7.66258 26.3093C7.71202 26.2163 7.8462 25.9733 7.96626 25.7659C8.22403 25.3191 8.71133 24.4684 9.09269 23.8C9.43874 23.1887 9.84129 22.4845 10.0885 22.0592C10.3816 21.5516 10.9077 20.6222 11.0172 20.4221C11.0701 20.322 11.2114 20.0789 11.3279 19.8787C11.4444 19.6786 11.5751 19.4498 11.6175 19.3712C11.6951 19.2139 11.7799 19.1674 11.7269 19.3032C11.7093 19.3497 11.6386 19.6106 11.568 19.8859C11.4939 20.1611 11.4056 20.49 11.3703 20.6187C11.3067 20.851 11.2396 21.1084 11.0878 21.691C11.0454 21.859 10.9783 22.0985 10.943 22.2272C10.9042 22.3559 10.8653 22.5274 10.8512 22.6061C10.8371 22.7312 10.8441 22.7598 10.8971 22.7777C11.003 22.8098 11.508 22.9421 11.8081 23.0171C11.96 23.0565 12.0977 23.0779 12.1154 23.06C12.1295 23.0457 12.1754 22.9028 12.2178 22.7455C12.3767 22.1235 12.5497 21.4801 12.6309 21.1727C12.6768 20.994 12.7474 20.7366 12.7827 20.6008C12.818 20.4614 12.8922 20.1897 12.9416 19.9931C12.9946 19.7965 13.0476 19.6035 13.0546 19.5642C13.0652 19.5249 13.0829 19.4677 13.0935 19.4391C13.1076 19.4105 13.1253 21.3228 13.1359 23.6927L13.1535 28H13.8068H14.46L14.4777 23.6391C14.4883 21.1906 14.5095 19.3247 14.5236 19.3855C14.5412 19.4426 14.5695 19.5463 14.5907 19.6106C14.6331 19.7536 14.7884 20.3363 14.8273 20.5114C14.8449 20.5793 14.9014 20.7974 14.9544 20.994C15.0074 21.1906 15.1027 21.5516 15.1663 21.7982C15.2898 22.2665 15.4487 22.867 15.4876 23.0028C15.5158 23.1029 15.53 23.1029 15.8584 23.0171C16.0031 22.9778 16.2538 22.9099 16.4198 22.867C16.5858 22.8241 16.7376 22.7705 16.7623 22.7491C16.8082 22.7062 16.8012 22.6633 16.5257 21.6195C16.4445 21.3157 16.3492 20.9511 16.3139 20.8153C16.2786 20.6758 16.1974 20.3792 16.1373 20.154C16.0773 19.9288 16.0173 19.7036 16.0067 19.6535C15.9996 19.6035 15.9643 19.4855 15.936 19.3926C15.9078 19.2961 15.8901 19.2139 15.8972 19.2032C15.9078 19.196 16.0208 19.3783 16.1514 19.6106C16.4269 20.0932 16.4022 20.0539 16.614 20.4149C16.7023 20.5686 16.8188 20.7759 16.8753 20.8796C16.9318 20.9833 17.0837 21.2513 17.2143 21.4765C17.345 21.7017 17.4968 21.9734 17.5533 22.0771C17.6098 22.1771 17.6946 22.3237 17.7405 22.4023C17.7899 22.4774 18.0759 22.9814 18.3796 23.5176C18.6833 24.0573 18.9799 24.5685 19.0329 24.6578C19.0858 24.7472 19.1741 24.8973 19.2271 24.9974C19.28 25.0939 19.4072 25.3191 19.5096 25.4978C19.612 25.673 19.785 25.9768 19.8945 26.1663C20.0039 26.3593 20.1099 26.5166 20.124 26.5166C20.1416 26.5166 20.3818 26.3808 20.6607 26.2127C20.9397 26.0447 21.1798 25.9089 21.1939 25.9089C21.2681 25.9089 21.201 25.7409 20.9891 25.3692C20.8585 25.144 20.636 24.7579 20.4948 24.5041C20.35 24.2539 20.1169 23.8464 19.9721 23.5926C19.5166 22.7955 19.2235 22.2844 19.1812 22.2093C19.16 22.17 19.0081 21.9055 18.8457 21.6195C18.6833 21.3336 18.4502 20.9225 18.3266 20.708C18.203 20.49 18.0653 20.2541 18.023 20.1826C17.977 20.1075 17.9382 20.0396 17.9382 20.0324C17.9382 20.0217 17.8464 19.8573 17.7334 19.6643C17.6204 19.4712 17.4721 19.2175 17.4085 19.0995C17.345 18.9815 17.1967 18.7277 17.0837 18.5311C16.9671 18.3381 16.8859 18.1701 16.8965 18.1594C16.9071 18.1487 17.5604 18.7885 18.3443 19.582L19.7744 21.0297L20.2334 20.565C20.4842 20.3112 20.6925 20.0861 20.6925 20.0646C20.6925 20.0432 20.1522 19.482 19.4884 18.8135C18.4538 17.7662 18.1148 17.4052 18.2454 17.4838C18.2595 17.491 18.5456 17.659 18.874 17.8484C19.2059 18.0414 19.4919 18.2094 19.5096 18.2237C19.5308 18.238 19.6155 18.2917 19.7038 18.3381C19.9121 18.4597 21.1445 19.1746 21.5541 19.4176C21.7307 19.5213 22.0838 19.7286 22.3345 19.8752C22.5887 20.0253 23.0266 20.2827 23.3126 20.4542C23.5986 20.6222 23.8387 20.7616 23.8493 20.7616C23.8599 20.7616 23.9694 20.8224 24.0895 20.8975C24.213 20.9725 24.5556 21.1763 24.8486 21.3479C25.2936 21.6016 25.3995 21.6517 25.456 21.6231C25.5125 21.5909 25.6926 21.305 25.9221 20.8832C25.9574 20.8224 26.0175 20.7187 26.0563 20.6508C26.0987 20.5829 26.1305 20.5114 26.1305 20.4864C26.1305 20.4614 26.0563 20.4006 25.9645 20.347C25.8692 20.2934 25.5831 20.1218 25.3254 19.9681C25.0676 19.8144 24.8451 19.6893 24.8381 19.6893C24.8275 19.6893 24.6121 19.5642 24.3543 19.4105C24.0965 19.2568 23.6587 18.9958 23.3762 18.8314C23.0937 18.6706 22.6805 18.4275 22.4581 18.2952C22.2356 18.163 21.9178 17.9771 21.7554 17.8842C21.5894 17.7912 21.3563 17.6518 21.2328 17.5768C21.1092 17.4981 20.9256 17.3909 20.8231 17.3337C20.7243 17.2801 20.2899 17.0263 19.8627 16.7761C19.4354 16.5223 19.0399 16.2935 18.9799 16.2613C18.6409 16.0755 18.6621 16.0326 19.0364 16.147C19.3401 16.2399 19.7991 16.3686 19.951 16.4007C20.018 16.415 20.1946 16.4615 20.3394 16.5008C21.2681 16.7582 22.0626 16.9727 22.1403 16.9905C22.4545 17.0656 22.4545 17.0656 22.5252 16.7403C22.5463 16.6402 22.6099 16.3864 22.6664 16.1684C22.7264 15.9539 22.7617 15.7645 22.7476 15.7502C22.7264 15.7287 22.1014 15.5536 21.3104 15.3463C21.2151 15.3212 20.9503 15.2498 20.7278 15.1854C20.5053 15.1211 20.2652 15.0567 20.1981 15.0424C20.0534 15.0103 19.2942 14.7994 19.1918 14.7636C19.1529 14.7493 22.9206 14.7315 27.5606 14.7207L36 14.7029V14.0237V13.3445L27.5782 13.3267C22.9454 13.3159 19.1812 13.2981 19.2094 13.2838C19.2377 13.2731 19.3895 13.2266 19.5449 13.1837C19.7002 13.1408 19.8768 13.0943 19.9333 13.0765C19.9933 13.0586 20.2935 12.9764 20.6042 12.8942C20.915 12.8119 21.2398 12.7226 21.3281 12.6976C21.4764 12.6582 22.0696 12.4974 22.5252 12.3759C22.6311 12.3473 22.7335 12.3115 22.7512 12.2936C22.7688 12.2758 22.7653 12.2043 22.7406 12.1256C22.7194 12.047 22.6841 11.929 22.6699 11.8611C22.5711 11.4501 22.4581 11.0604 22.4263 11.0283C22.391 10.9925 22.172 11.0426 20.8867 11.3964C20.5195 11.5001 20.1593 11.5966 20.0922 11.6109C20.0251 11.6288 19.7532 11.7003 19.4919 11.7718C19.2306 11.8468 18.9834 11.9147 18.9446 11.9219C18.8386 11.9505 18.9163 11.8861 19.1211 11.7718C19.3083 11.6681 19.9368 11.2999 20.6395 10.8817C20.8726 10.7459 21.1268 10.5958 21.2045 10.5529C21.4411 10.4206 22.6841 9.6914 22.9312 9.5377C23.0619 9.45906 23.1749 9.39472 23.1855 9.39472C23.1961 9.39472 23.4362 9.25531 23.7222 9.08731C24.8381 8.42245 25.0605 8.29377 25.2194 8.20441C25.3112 8.15437 25.5513 8.01139 25.7562 7.88985C26.2435 7.60032 26.2435 7.6039 25.9115 7.04627C25.7738 6.81393 25.6361 6.57086 25.6078 6.50652C25.5761 6.44576 25.5372 6.39214 25.5196 6.39214C25.4772 6.39214 25.0711 6.61733 24.5768 6.91044C24.3719 7.03197 23.9376 7.28934 23.6057 7.48236C23.2773 7.67538 22.8218 7.9399 22.5993 8.07215C22.3769 8.20084 21.9072 8.47607 21.5576 8.67982C21.0421 8.98008 20.4418 9.33038 20.0922 9.5377C20.064 9.55557 19.8662 9.66996 19.6543 9.79506C19.4425 9.92017 19.1953 10.0632 19.107 10.1168C19.0187 10.1704 18.9199 10.2276 18.8916 10.2419C18.8634 10.2562 18.6727 10.367 18.4679 10.4921C18.2666 10.6136 18.0936 10.7066 18.083 10.6958C18.0724 10.6851 18.655 10.081 19.3789 9.34825C20.1028 8.61548 20.6925 8.00066 20.6925 7.98279C20.6925 7.96134 20.4842 7.73615 20.2334 7.48236L19.7744 7.01768L18.4855 8.32237C17.7758 9.04084 17.1967 9.61634 17.1967 9.60204C17.1967 9.58774 17.2461 9.49123 17.3061 9.38757C17.3697 9.28391 17.4544 9.13378 17.4968 9.05514C17.5392 8.9765 17.7793 8.55829 18.0265 8.12577C18.2737 7.69326 18.5208 7.25359 18.5773 7.14993C18.6338 7.04985 18.7151 6.90329 18.761 6.82823C18.8386 6.71027 19.5731 5.42345 19.7497 5.10532C19.785 5.0374 19.9015 4.83366 20.0039 4.6585C20.1063 4.47978 20.3429 4.06156 20.5336 3.72914C20.7243 3.39313 20.9785 2.94989 21.1021 2.739C21.2257 2.5281 21.3281 2.32436 21.3281 2.28504C21.3281 2.24572 21.2928 2.18852 21.2504 2.15635C21.0385 2.00623 20.1981 1.52724 20.1699 1.54511C20.1416 1.56299 19.9404 1.90257 19.4601 2.7533C19.3507 2.94632 19.1247 3.33951 18.9587 3.62905C18.7927 3.92216 18.5244 4.39042 18.3619 4.67638C18.1995 4.96234 17.9629 5.38055 17.8287 5.60575C17.6981 5.83094 17.5604 6.07401 17.5251 6.14192C17.3697 6.42073 16.6211 7.73615 16.5964 7.76832C16.5822 7.78619 16.5293 7.87913 16.4763 7.97207C16.275 8.34024 16.2044 8.46892 16.0279 8.75846C15.816 9.10876 15.816 9.09089 16.042 8.25088C16.2185 7.59317 16.4163 6.84253 16.5328 6.41001C16.5717 6.25273 16.6423 5.99179 16.6882 5.83452C16.8224 5.34123 16.8259 5.29834 16.7306 5.27332C16.6882 5.2626 16.4657 5.20183 16.2433 5.14106C15.5935 4.95876 15.5653 4.95161 15.5194 5.00523C15.4947 5.03025 15.4417 5.18753 15.3993 5.35553C15.3569 5.52353 15.2828 5.81307 15.2333 5.99894C15.1839 6.18482 15.1274 6.39571 15.1133 6.46363C15.0956 6.53154 15.0356 6.77461 14.972 6.9998C14.7743 7.729 14.7178 7.94347 14.6896 8.07215C14.6507 8.2473 14.5448 8.61548 14.5165 8.67982C14.5059 8.70842 14.4883 6.77104 14.4777 4.37255L14.46 0.0116539L13.8209 0.000928879C13.4713 -0.00264549 13.1747 0.00450516 13.1606 0.0152283Z" fill="#E72F2F"/>
</svg>
