<svg width="43" height="44" viewBox="0 0 43 44" fill="none" xmlns="http://www.w3.org/2000/svg">
<path fill-rule="evenodd" clip-rule="evenodd" d="M34.1335 30.6763C37.1276 30.2247 39.4168 27.7527 39.4168 24.7708C39.4168 21.7122 37.0081 19.1899 33.9006 18.8345C33.0663 13.9657 28.6341 10.25 23.2918 10.25C19.1921 10.25 15.6285 12.4382 13.8154 15.6565C13.1251 15.4731 12.3976 15.375 11.646 15.375C7.1932 15.375 3.5835 18.8168 3.5835 23.0625C3.5835 27.011 6.70561 30.2643 10.7244 30.7003C11.0268 30.7331 34.1335 30.6763 34.1335 30.6763Z" fill="#4B88FF" fill-opacity="0.89"/>
<path d="M26.3423 30.75L28.134 35.875" stroke="#4B88FF" stroke-opacity="0.89" stroke-width="2" stroke-linecap="round"/>
<path d="M34.8647 31.027L36.6564 36.152" stroke="#4B88FF" stroke-opacity="0.89" stroke-width="2" stroke-linecap="round"/>
<path d="M18.6431 30.75L20.4347 35.875" stroke="#4B88FF" stroke-opacity="0.89" stroke-width="2" stroke-linecap="round"/>
<path d="M10.4595 31.027L12.2511 36.152" stroke="#4B88FF" stroke-opacity="0.89" stroke-width="2" stroke-linecap="round"/>
<path d="M33.9932 37.6757L35.7848 42.8007" stroke="#4B88FF" stroke-opacity="0.89" stroke-width="2" stroke-linecap="round"/>
<path d="M25.1318 37.6757L26.9235 42.8007" stroke="#4B88FF" stroke-opacity="0.89" stroke-width="2" stroke-linecap="round"/>
<path d="M16.2705 37.6757L18.0622 42.8007" stroke="#4B88FF" stroke-opacity="0.89" stroke-width="2" stroke-linecap="round"/>
</svg>
