<svg width="40" height="41" viewBox="0 0 40 41" fill="none" xmlns="http://www.w3.org/2000/svg">
<path d="M8 20.0732C8 19.3939 7.44862 18.8425 6.76923 18.8425H1.23077C0.551385 18.8425 0 19.3939 0 20.0732C0 20.7526 0.551385 21.304 1.23077 21.304H6.76923C7.44862 21.304 8 20.7526 8 20.0732Z" fill="#FFE920"/>
<path d="M38.7691 18.8425H33.846C33.1666 18.8425 32.6152 19.3939 32.6152 20.0732C32.6152 20.7526 33.1666 21.304 33.846 21.304H38.7691C39.4485 21.304 39.9999 20.7526 39.9999 20.0732C39.9999 19.3939 39.4485 18.8425 38.7691 18.8425Z" fill="#FFE920"/>
<path d="M21.2308 39.3846V33.8461C21.2308 33.1667 20.6794 32.6154 20.0001 32.6154C19.3207 32.6154 18.7693 33.1667 18.7693 33.8461V39.3846C18.7693 40.064 19.3207 40.6154 20.0001 40.6154C20.6794 40.6154 21.2308 40.064 21.2308 39.3846Z" fill="#FFE920"/>
<path d="M18.7693 1.23077V6.76923C18.7693 7.44862 19.3207 8 20.0001 8C20.6794 8 21.2308 7.44862 21.2308 6.76923V1.23077C21.2308 0.551385 20.6794 0 20.0001 0C19.3207 0 18.7693 0.550769 18.7693 1.23077Z" fill="#FFE920"/>
<path d="M11.7491 30.7187C12.2297 30.2381 12.2297 29.4591 11.7491 28.9784C11.2685 28.4978 10.4894 28.4978 10.0088 28.9784L6.41246 32.5747C5.93185 33.0554 5.93185 33.8344 6.41246 34.3151C6.65308 34.5557 6.96754 34.6757 7.28262 34.6757C7.59769 34.6757 7.91216 34.5557 8.15277 34.3151L11.7491 30.7187Z" fill="#FFE920"/>
<path d="M34.9244 7.5434C35.405 7.06278 35.405 6.2837 34.9244 5.80309C34.4438 5.32247 33.6647 5.32247 33.1841 5.80309L29.5878 9.3994C29.1071 9.88001 29.1071 10.6591 29.5878 11.1397C29.8284 11.3803 30.1428 11.5003 30.4579 11.5003C30.773 11.5003 31.0874 11.3803 31.3281 11.1397L34.9244 7.5434Z" fill="#FFE920"/>
<path d="M30.9291 28.9784C30.4485 28.4978 29.6694 28.4978 29.1888 28.9784C28.7082 29.4584 28.7082 30.2381 29.1888 30.7187L32.7839 34.3151C33.0245 34.5557 33.339 34.6757 33.6541 34.6757C33.9691 34.6757 34.2836 34.5557 34.5242 34.3151C35.0048 33.8351 35.0048 33.0554 34.5242 32.5747L30.9291 28.9784Z" fill="#FFE920"/>
<path d="M11.3495 9.39878L7.75385 5.80309C7.27323 5.32247 6.49415 5.32247 6.01354 5.80309C5.53292 6.2837 5.53292 7.06278 6.01354 7.5434L9.60984 11.1397C9.85046 11.3803 10.1649 11.5003 10.48 11.5003C10.7951 11.5003 11.1095 11.3803 11.3502 11.1397C11.8308 10.6585 11.8308 9.88001 11.3495 9.39878Z" fill="#FFE920"/>
<path d="M20.4918 9.41724C14.6592 9.41724 9.91455 14.1625 9.91455 19.9951C9.91455 25.8277 14.6598 30.5729 20.4918 30.5729C26.325 30.5729 31.0696 25.8277 31.0696 19.9951C31.0696 14.1625 26.3244 9.41724 20.4918 9.41724ZM20.4918 28.1114C16.0167 28.1114 12.3761 24.4702 12.3761 19.9951C12.3761 15.52 16.0167 11.8788 20.4918 11.8788C24.9669 11.8788 28.6081 15.52 28.6081 19.9951C28.6081 24.4702 24.9669 28.1114 20.4918 28.1114Z" fill="#FFE920"/>
<path d="M20.4918 28.1114C16.0167 28.1114 12.3761 24.4702 12.3761 19.9951C12.3761 15.52 16.0167 11.8788 20.4918 11.8788C24.9669 11.8788 28.6081 15.52 28.6081 19.9951C28.6081 24.4702 24.9669 28.1114 20.4918 28.1114Z" fill="#FFE920"/>
</svg>
