<svg width="20" height="7" viewBox="0 0 20 7" fill="none" xmlns="http://www.w3.org/2000/svg">
<path d="M10 6.5C9.27542 6.5 8.57359 6.30145 8.06158 5.94013L0.539229 0.631609C0.526749 0.622801 0.517731 0.614971 0.511326 0.608607C0.517731 0.602243 0.526749 0.594413 0.539229 0.585606C0.605199 0.539051 0.720635 0.5 0.862417 0.5C1.0042 0.5 1.11964 0.539051 1.18561 0.585606L8.70796 5.89413C9.08493 6.16016 9.55442 6.27872 10 6.27872C10.4456 6.27872 10.9151 6.16016 11.292 5.89413L18.8144 0.585606C18.8804 0.539051 18.9958 0.5 19.1376 0.5C19.2794 0.5 19.3948 0.539051 19.4608 0.585606C19.4732 0.594413 19.4823 0.602243 19.4887 0.608607C19.4823 0.614971 19.4732 0.622801 19.4608 0.631608L11.9384 5.94013C11.4264 6.30145 10.7246 6.5 10 6.5Z" fill="#292D32" stroke="#2A64BC"/>
</svg>
