<svg width="15" height="15" viewBox="0 0 15 15" fill="none" xmlns="http://www.w3.org/2000/svg">
<path d="M0.896689 0.157096L7.70398 7.12127C7.9082 7.3302 7.9082 7.6698 7.70398 7.87873L0.896689 14.8429C0.69247 15.0524 0.357383 15.0524 0.153164 14.8429C-0.0510547 14.634 -0.0510547 14.2944 0.153164 14.0854L6.59393 7.5L0.153164 0.914552C-0.0510547 0.705627 -0.0510547 0.366021 0.153164 0.157096C0.357383 -0.0523653 0.69247 -0.0523653 0.896689 0.157096Z" fill="black"/>
<path d="M8.03951 0.157096L14.8468 7.12127C15.051 7.3302 15.051 7.6698 14.8468 7.87873L8.03951 14.8429C7.83529 15.0524 7.5002 15.0524 7.29599 14.8429C7.09177 14.634 7.09177 14.2944 7.29599 14.0854L13.7368 7.5L7.29599 0.914552C7.09177 0.705627 7.09177 0.366021 7.29599 0.157096C7.5002 -0.0523653 7.83529 -0.0523653 8.03951 0.157096Z" fill="black"/>
</svg>
