<svg width="104" height="100" viewBox="0 0 104 100" fill="none" xmlns="http://www.w3.org/2000/svg">
<path d="M100.862 44.5792C98.7521 42.554 96.2413 41.5181 93.3324 41.5181C90.4234 41.5181 87.9701 42.5073 85.8584 44.5211C83.7482 46.5347 82.7209 48.944 82.7209 51.7258C82.7209 54.5076 83.7336 56.8704 85.8014 58.8725C87.897 60.8978 90.4224 61.8755 93.3324 61.8755C96.2423 61.8755 98.7521 60.8861 100.862 58.8725C102.973 56.8472 104 54.5078 104 51.7258C104 48.944 102.973 46.5928 100.862 44.5792Z" fill="black" fill-opacity="0.75"/>
<path d="M80.496 71.2559C77.7577 71.2559 75.4757 72.1287 73.5928 73.9328C71.7101 75.7252 70.7974 77.8554 70.7974 80.4162C70.7974 82.9883 71.6955 85.1766 73.5928 87.0274C75.4611 88.8315 77.7577 89.6926 80.496 89.6926C83.1771 89.6926 85.4019 88.8198 87.2848 87.0274C89.2248 85.1651 90.1947 82.9883 90.1947 80.4162C90.1947 77.8554 89.2113 75.7371 87.2848 73.9328C85.3873 72.1404 83.1771 71.2559 80.496 71.2559Z" fill="black" fill-opacity="0.75"/>
<path d="M81.9228 34.755C85.0603 34.755 87.7986 33.6609 90.0807 31.4843C92.3627 29.2962 93.5032 26.6772 93.5032 23.6277C93.5032 20.5199 92.3615 17.9011 90.0807 15.713C87.8559 13.583 85.1176 12.5005 81.9228 12.5005C78.6708 12.5005 75.9324 13.583 73.7076 15.713C71.4256 17.9011 70.2852 20.5201 70.2852 23.6277C70.2852 26.6772 71.4268 29.296 73.7076 31.4843C75.9895 33.6609 78.728 34.755 81.9228 34.755Z" fill="black" fill-opacity="0.75"/>
<path d="M50.3739 83.0933C47.9774 83.0933 45.9097 83.8964 44.2132 85.5492C42.5446 87.1671 41.7036 89.1457 41.7036 91.4969C41.7036 93.7898 42.5458 95.7685 44.2132 97.3283C45.911 98.9345 47.9788 99.7376 50.3739 99.7376C52.8274 99.7376 54.8661 98.8995 56.5347 97.3283C58.2323 95.7337 59.1014 93.79 59.1014 91.4969C59.1014 89.1457 58.2457 87.1323 56.5347 85.491C54.8807 83.9081 52.8275 83.0933 50.3739 83.0933Z" fill="black" fill-opacity="0.75"/>
<path d="M50.3741 0C46.8945 0 43.9273 1.15225 41.4749 3.49185C39.0214 5.84299 37.8237 8.6248 37.8237 11.9536C37.8237 15.2825 39.0213 18.1691 41.4749 20.5201C43.9285 22.8597 46.8945 24.0119 50.3741 24.0119C53.8537 24.0119 56.8209 22.8597 59.2732 20.5201C61.7268 18.169 62.9816 15.2823 62.9816 11.9536C62.9816 8.62496 61.7268 5.84299 59.2732 3.49185C56.8209 1.15225 53.8537 0 50.3741 0Z" fill="black" fill-opacity="0.75"/>
<path d="M20.3086 29.1338C21.8494 29.1338 23.2735 28.645 24.4161 27.5509C26.6994 25.3743 26.6994 21.8243 24.4161 19.6479C23.2733 18.5538 21.8494 18.0649 20.3086 18.0649C18.8251 18.0649 17.4194 18.5655 16.2582 19.6479C13.8814 21.8477 13.8814 25.3511 16.2582 27.5509C17.4194 28.6334 18.8263 29.1338 20.3086 29.1338Z" fill="black" fill-opacity="0.75"/>
<path d="M20.3089 72.3965C18.1987 72.3965 16.4009 73.1879 14.8321 74.6428C13.3205 76.0278 12.55 77.7505 12.55 79.7642C12.55 81.7893 13.2913 83.5353 14.8321 85.002C16.3729 86.4802 18.1985 87.2368 20.3089 87.2368C22.4193 87.2368 24.245 86.4802 25.7858 85.002C27.3266 83.5354 28.0678 81.7893 28.0678 79.7642C28.0678 77.7505 27.2975 76.0279 25.7858 74.6428C24.2169 73.1879 22.4207 72.3965 20.3089 72.3965Z" fill="black" fill-opacity="0.75"/>
<path d="M11.5243 47.1397C10.2122 45.8827 8.67143 45.231 6.78872 45.231C4.90602 45.231 3.25204 45.8827 1.93998 47.1397C0.627909 48.3968 0 49.9215 0 51.7255C0 53.5179 0.627909 55.101 1.93998 56.358C3.25204 57.6149 4.90602 58.2203 6.78872 58.2203C8.67143 58.2203 10.211 57.6149 11.5243 56.358C12.8362 55.101 13.5214 53.5179 13.5214 51.7255C13.5202 49.9215 12.8362 48.3966 11.5243 47.1397Z" fill="black" fill-opacity="0.75"/>
</svg>
