<svg width="59" height="59" viewBox="0 0 59 59" fill="none" xmlns="http://www.w3.org/2000/svg">
<path d="M29.7949 33.2613C29.7458 33.2613 29.672 33.2613 29.6228 33.2613C29.5491 33.2613 29.4508 33.2613 29.377 33.2613C23.7966 33.0892 19.6174 28.7379 19.6174 23.3788C19.6174 17.9213 24.067 13.4717 29.5245 13.4717C34.982 13.4717 39.4316 17.9213 39.4316 23.3788C39.407 28.7625 35.2033 33.0892 29.8687 33.2613C29.8195 33.2613 29.8195 33.2613 29.7949 33.2613ZM29.4999 17.1346C26.0583 17.1346 23.2803 19.9371 23.2803 23.3542C23.2803 26.7221 25.9108 29.4508 29.2541 29.5738C29.3278 29.5492 29.5737 29.5492 29.8195 29.5738C33.1137 29.4017 35.6949 26.6975 35.7195 23.3542C35.7195 19.9371 32.9416 17.1346 29.4999 17.1346Z" fill="#292D32"/>
<path d="M29.4999 55.9271C22.887 55.9271 16.569 53.4688 11.677 48.9946C11.2345 48.6013 11.0378 48.0113 11.087 47.4459C11.4065 44.5204 13.2257 41.7917 16.2495 39.7759C23.5753 34.9084 35.449 34.9084 42.7503 39.7759C45.774 41.8163 47.5932 44.5204 47.9128 47.4459C47.9865 48.0359 47.7653 48.6013 47.3228 48.9946C42.4307 53.4688 36.1128 55.9271 29.4999 55.9271ZM14.9465 46.9542C19.0274 50.3713 24.1653 52.2396 29.4999 52.2396C34.8345 52.2396 39.9724 50.3713 44.0532 46.9542C43.6107 45.4546 42.4307 44.0042 40.6853 42.8242C34.6378 38.7925 24.3865 38.7925 18.2899 42.8242C16.5445 44.0042 15.389 45.4546 14.9465 46.9542Z" fill="#292D32"/>
<path d="M29.5001 55.927C14.9222 55.927 3.073 44.0779 3.073 29.5C3.073 14.922 14.9222 3.07288 29.5001 3.07288C44.078 3.07288 55.9272 14.922 55.9272 29.5C55.9272 44.0779 44.078 55.927 29.5001 55.927ZM29.5001 6.76038C16.9626 6.76038 6.7605 16.9625 6.7605 29.5C6.7605 42.0375 16.9626 52.2395 29.5001 52.2395C42.0376 52.2395 52.2397 42.0375 52.2397 29.5C52.2397 16.9625 42.0376 6.76038 29.5001 6.76038Z" fill="#292D32"/>
</svg>
